<svg id="buscacode-logo" width="268" height="152" viewBox="0 0 268 152" fill="none" xmlns="http://www.w3.org/2000/svg">
<path fill-rule="evenodd" clip-rule="evenodd" d="M0.0899508 0.989909C0.371892 0.210935 1.23193 -0.19199 2.01091 0.0899508L139.195 47.97C142.561 49.1881 144.803 52.3836 144.803 55.9626V109.5C144.803 118.922 138.932 127.347 130.092 130.609L79.2457 151.372C78.4685 151.659 77.6059 151.261 77.3191 150.484C77.0323 149.707 77.4299 148.844 78.2071 148.557L116.5 124.5C127.803 116 127.803 107.666 127.803 99.4999V67.9626C127.803 65.6468 126.352 63.5791 124.174 62.7909L0.989909 2.91087C0.210935 2.62893 -0.19199 1.76888 0.0899508 0.989909Z" fill="white"/>
<ellipse cx="104.498" cy="90.252" rx="9.93481" ry="27.5967" fill="white"/>
<path fill-rule="evenodd" clip-rule="evenodd" d="M164.276 46.7397C165.105 46.7397 165.776 47.4113 165.776 48.2397L176.776 84.6292C180.001 91.5005 183.157 95.709 189.315 93.6302L253.45 74.2788C254.235 74.0138 255.086 74.4353 255.351 75.2202C255.616 76.0051 255.195 76.8562 254.41 77.1212L179.274 116.473C171.172 119.208 162.776 113.181 162.776 104.629V48.2397C162.776 47.4113 163.448 46.7397 164.276 46.7397Z" fill="white"/>
<path d="M204.89 95.6782C204.295 94.341 203.899 92.9239 203.714 91.472L197.533 42.8516C197.235 40.5085 200.532 39.6755 201.383 41.879L219.031 87.5855C219.507 88.8164 219.818 90.1047 219.956 91.417L223.893 128.789C224.132 131.054 221.003 131.893 220.077 129.811L204.89 95.6782Z" fill="white"/>
<style>
  svg#buscacode-logo path,
  svg#buscacode-logo ellipse{
    fill: black
  }
  @media (prefers-color-scheme: dark) {
    svg#buscacode-logo path,
    svg#buscacode-logo ellipse{
      fill: white
    }
  }
  /* html[data-theme=light] svg#buscacode-logo path{
    fill: black
  }
  html[data-theme=dark] svg#buscacode-logo path{
    fill: white
  } */
</style>
</svg>
